<?xml version="1.0" standalone="no"?>
<!DOCTYPE svg PUBLIC "-//W3C//DTD SVG 20010904//EN"
 "http://www.w3.org/TR/2001/REC-SVG-20010904/DTD/svg10.dtd">
<svg version="1.0" xmlns="http://www.w3.org/2000/svg"
 width="398.000000pt" height="398.000000pt" viewBox="0 0 398.000000 398.000000"
 preserveAspectRatio="xMidYMid meet">
<metadata>
Created by potrace 1.11, written by Peter Selinger 2001-2013
</metadata>
<g transform="translate(0.000000,398.000000) scale(0.100000,-0.100000)"
fill="#000000" stroke="none">
<path d="M1780 3045 c-104 -24 -169 -62 -210 -121 l-35 -51 -69 -6 c-179 -15
-359 -185 -422 -396 -63 -213 -97 -308 -159 -440 -37 -78 -69 -159 -72 -181
-11 -79 51 -182 142 -236 40 -23 43 -28 49 -81 4 -31 16 -77 27 -102 15 -34
19 -57 14 -88 -10 -68 -57 -199 -123 -339 -88 -189 -104 -232 -105 -294 0 -61
17 -125 42 -154 9 -10 43 -36 75 -58 57 -37 81 -43 58 -15 -7 8 -9 17 -5 20 3
4 2 7 -4 7 -27 0 -109 187 -90 206 2 3 10 -16 16 -41 11 -42 74 -155 88 -155
3 0 3 19 0 43 l-6 42 15 -34 c8 -18 13 -40 10 -48 -3 -8 -1 -11 4 -8 8 5 16
-39 11 -67 0 -4 27 -26 61 -48 53 -34 63 -37 72 -24 6 8 47 24 90 35 l79 20
26 -24 c37 -35 101 -77 117 -77 25 0 15 19 -32 62 -45 41 -74 85 -74 110 0 7
10 29 21 48 20 32 22 33 35 15 23 -31 27 -10 8 50 -24 75 -11 101 68 133 l57
22 60 -37 c62 -39 70 -54 55 -111 -5 -17 -11 -21 -28 -16 -48 14 -89 39 -94
56 -5 21 -32 25 -32 4 0 -108 422 -188 674 -127 143 34 226 79 226 123 0 24
-3 23 -38 -11 -25 -26 -106 -61 -116 -50 -2 2 -6 23 -9 46 -5 42 -5 43 52 81
55 38 57 39 96 25 51 -18 85 -50 85 -82 0 -14 -7 -47 -15 -73 -14 -47 -6 -65
13 -31 9 15 13 12 31 -18 11 -19 21 -40 21 -47 0 -30 -34 -83 -82 -128 -34
-32 -46 -50 -39 -57 12 -12 47 9 114 72 l48 45 62 -13 c34 -7 80 -21 101 -31
l40 -19 52 34 c29 19 56 35 61 35 14 1 79 59 66 60 -9 0 -12 15 -11 48 l1 47
4 -43 c3 -26 10 -45 19 -49 22 -8 54 26 54 58 0 16 9 51 20 79 11 28 20 73 20
100 0 28 2 50 5 50 4 0 18 -6 33 -14 53 -27 162 -30 162 -5 0 5 -19 27 -43 48
-24 22 -57 64 -73 93 -27 50 -29 59 -28 168 0 112 2 119 52 266 74 214 72 280
-14 467 -51 111 -52 119 -34 242 12 87 12 92 -9 134 -13 24 -65 88 -117 143
-98 103 -122 141 -175 275 -87 220 -275 347 -630 423 -126 28 -332 35 -419 15z
m129 -66 c-143 -12 -257 -59 -290 -120 -6 -12 -13 -18 -16 -15 -13 13 52 87
95 108 62 29 99 36 212 35 l95 0 -96 -8z m187 -134 c34 -8 85 -26 115 -40 30
-14 45 -23 34 -19 -120 34 -288 47 -360 25 -23 -6 -5 -9 71 -10 57 -1 119 -7
145 -16 33 -11 36 -13 9 -7 -19 4 -104 6 -187 5 -84 -1 -153 0 -153 2 0 8 44
28 90 41 l45 14 -45 -7 c-42 -5 -97 -20 -145 -38 -15 -6 -17 -5 -9 4 6 7 45
23 85 36 88 29 211 33 305 10z m-570 -39 c10 -8 16 -17 12 -21 -8 -8 -48 13
-48 25 0 14 13 12 36 -4z m-12 -55 c8 -13 -19 -21 -67 -21 -74 0 -167 -63
-188 -127 -6 -19 -13 -32 -16 -29 -11 11 28 93 55 119 44 42 101 66 159 67 28
0 54 -4 57 -9z m321 0 l40 -7 -55 -7 c-77 -10 -140 -9 -140 2 0 18 87 25 155
12z m-290 -51 c3 -5 -7 -12 -22 -16 -15 -4 -41 -14 -58 -22 l-30 -15 20 23
c30 34 78 50 90 30z m176 -19 c35 -16 127 -45 203 -65 76 -20 170 -50 208 -67
80 -37 86 -50 7 -16 -30 14 -76 29 -104 36 -27 6 -88 20 -135 30 -47 11 -94
22 -105 26 l-20 7 20 -13 c11 -7 47 -21 80 -31 l60 -18 -55 6 c-85 8 -194 66
-221 116 -12 23 -13 23 62 -11z m-171 -9 c0 -5 -14 -19 -31 -31 -29 -22 -30
-22 -20 -2 6 11 19 25 29 30 21 13 22 13 22 3z m20 -139 c-11 -46 -71 -186
-76 -180 -2 2 7 34 20 73 13 38 32 103 42 144 16 65 19 70 22 41 2 -19 -1 -54
-8 -78z m255 -37 c54 -35 32 -33 -32 4 -46 26 -73 54 -98 100 -4 8 14 -6 41
-31 27 -26 67 -58 89 -73z m-19 -123 c31 -14 101 -34 157 -44 260 -49 326 -71
428 -139 36 -25 63 -52 74 -77 28 -58 95 -247 90 -252 -3 -2 -15 5 -28 16 -60
55 -169 75 -292 54 -89 -16 -125 -35 -125 -65 0 -14 6 -26 12 -28 28 -10 -90
-38 -157 -38 -77 0 -177 26 -154 41 10 6 11 15 4 35 -14 40 -74 56 -210 58
-114 1 -148 -8 -200 -54 -11 -10 -38 -21 -60 -24 -22 -4 -48 -9 -57 -12 -34
-10 -18 18 55 97 153 164 233 300 313 528 3 9 18 0 50 -29 25 -23 70 -53 100
-67z m1032 -120 c15 -16 22 -36 21 -61 l-1 -37 -10 35 c-13 46 -21 55 -100
107 -38 25 -68 47 -68 49 0 10 138 -71 158 -93z m-28 -43 c5 -10 10 -29 9 -42
0 -20 -2 -19 -11 7 -6 17 -20 41 -32 54 l-21 24 22 -12 c13 -6 27 -20 33 -31z
m-1427 6 c-10 -13 -39 -38 -64 -55 -25 -17 -67 -53 -94 -79 -43 -41 -46 -42
-24 -12 21 29 184 170 196 170 2 0 -4 -11 -14 -24z m1696 -75 c-2 -26 -2 -26
-6 -2 -3 14 -12 36 -20 50 l-15 26 21 -24 c12 -13 20 -35 20 -50z m-2006 11
c-28 -44 -46 -66 -67 -82 -11 -8 2 13 30 47 52 67 68 81 37 35z m1688 -289
c13 -16 12 -17 -3 -4 -17 13 -22 21 -14 21 2 0 10 -8 17 -17z m-1101 -24 c36
-5 103 -23 150 -40 111 -38 201 -40 295 -4 140 52 292 67 435 41 128 -23 160
-34 160 -56 0 -25 -4 -25 -38 0 -46 34 -162 52 -302 47 -105 -4 -141 -9 -225
-36 -136 -44 -199 -44 -335 -1 -177 56 -384 54 -503 -6 -59 -29 -67 -30 -67
-4 0 14 11 22 43 31 135 37 272 47 387 28z m27 -44 c114 -22 158 -63 151 -142
l-3 -37 -29 43 c-67 96 -173 121 -336 78 -52 -14 -94 -30 -92 -36 1 -6 -9 -11
-23 -11 -23 0 -25 -2 -14 -22 19 -36 79 -86 134 -112 102 -48 212 -42 299 16
26 17 49 28 52 25 12 -12 -45 -115 -77 -139 -94 -71 -268 -67 -365 7 -50 38
-86 122 -85 195 1 91 21 113 125 135 82 18 168 18 263 0z m861 -9 c68 -22 87
-51 86 -128 -1 -41 -10 -75 -29 -113 -45 -93 -125 -136 -251 -137 -111 0 -193
43 -235 124 -18 35 -25 68 -14 68 2 0 25 -13 51 -30 127 -80 295 -54 400 63
l47 52 -29 5 c-15 3 -26 9 -23 13 2 5 -39 20 -91 34 -162 42 -263 20 -335 -73
l-35 -47 0 39 c0 79 38 115 145 138 86 19 238 15 313 -8z m349 -56 c48 -50
100 -146 108 -200 5 -28 1 -23 -17 23 -21 51 -54 100 -145 217 -34 43 -6 22
54 -40z m-1807 -30 c-9 -6 -7 -11 8 -19 36 -19 44 -45 26 -87 -16 -38 -12 -98
6 -109 6 -4 7 6 4 24 -7 36 14 110 27 90 4 -7 10 -36 14 -64 3 -27 11 -74 16
-103 6 -30 8 -56 5 -59 -3 -4 -16 2 -29 13 -13 10 -7 3 13 -16 37 -35 57 -70
40 -70 -17 0 -93 66 -121 105 -35 48 -64 171 -54 230 7 47 31 88 47 79 7 -4 6
-9 -2 -14z m528 3 c-3 -12 -12 -17 -30 -16 -21 1 -27 -3 -30 -27 -2 -16 -1
-27 3 -24 4 2 10 0 14 -6 9 -14 58 -13 73 2 16 16 15 60 0 77 -11 11 -10 12 2
5 15 -8 19 -9 51 -12 8 -1 34 -18 58 -38 49 -43 45 -54 -34 -90 -58 -28 -165
-33 -218 -11 -41 18 -97 65 -97 82 0 19 100 66 128 61 12 -3 22 -1 22 5 0 5
14 9 31 9 24 0 30 -4 27 -17z m395 6 c20 -9 24 -18 24 -53 0 -68 15 -176 24
-176 5 0 9 5 9 12 0 6 16 -7 35 -30 20 -22 61 -53 93 -69 51 -25 68 -28 157
-28 84 0 109 4 153 24 78 35 136 105 166 198 14 46 26 71 31 63 9 -14 -2 -152
-17 -225 -12 -57 -109 -326 -144 -400 -47 -102 -214 -240 -393 -328 -101 -49
-110 -52 -186 -52 -76 0 -85 3 -186 52 -182 89 -344 225 -394 330 -14 30 -50
123 -81 206 -60 166 -93 334 -79 404 l8 38 9 -30 c35 -118 45 -141 85 -185 57
-63 124 -92 229 -98 106 -6 175 14 236 67 59 52 103 146 102 218 0 42 4 53 20
62 28 13 70 13 99 0z m317 2 c0 -16 -29 -33 -46 -27 -43 16 -33 -34 13 -68 15
-11 23 -14 19 -8 -4 8 0 12 12 12 10 0 27 12 38 28 26 35 40 63 20 38 -9 -11
-16 -15 -16 -9 0 7 -7 19 -16 27 -19 19 -13 20 52 2 50 -13 114 -45 114 -56 0
-18 -38 -54 -80 -75 -88 -44 -213 -31 -294 30 -19 15 -19 16 14 50 35 36 95
63 143 64 15 1 27 -3 27 -8z m467 -196 c-4 -33 -3 -36 6 -17 5 12 14 22 18 22
12 0 39 -42 39 -61 0 -36 -119 -159 -153 -159 -14 0 9 37 43 70 20 19 26 26
13 16 -13 -11 -25 -17 -27 -15 -3 2 3 52 12 111 15 105 16 107 35 90 15 -13
18 -26 14 -57z m246 -501 c4 -4 8 19 8 52 2 58 2 57 9 -21 4 -44 11 -93 15
-110 l7 -30 -20 25 c-31 37 -52 116 -57 205 l-5 80 18 -97 c9 -53 21 -100 25
-104z m-2054 -112 c-12 -20 -31 -62 -41 -92 l-19 -55 6 45 c3 24 12 56 20 70
8 14 22 40 32 58 9 19 19 29 21 23 2 -6 -6 -28 -19 -49z m831 -278 c96 -40
197 -39 303 6 43 18 79 31 81 29 2 -2 6 -21 9 -41 5 -36 4 -38 -31 -49 -66
-19 -268 -23 -365 -6 -49 9 -91 18 -94 21 -11 10 8 78 20 73 7 -3 41 -18 77
-33z"/>
<path d="M1530 1615 c0 -2 6 -8 13 -14 10 -8 14 -7 14 2 0 8 -6 14 -14 14 -7
0 -13 -1 -13 -2z"/>
<path d="M1826 1328 c-30 -42 -10 -99 30 -84 11 4 30 -6 55 -29 22 -19 46 -35
54 -35 8 0 32 16 53 35 28 24 44 32 60 28 34 -8 49 34 27 77 -20 38 -30 35
-15 -5 14 -37 6 -58 -19 -50 -12 4 -32 -6 -61 -30 -23 -19 -43 -35 -45 -35 -2
0 -22 16 -45 35 -29 24 -49 34 -61 30 -25 -8 -35 18 -20 52 15 34 7 41 -13 11z"/>
<path d="M2249 1075 c-19 -19 -183 -45 -283 -45 -91 0 -278 27 -287 42 -11 17
-44 4 -47 -18 -3 -18 3 -22 40 -27 24 -3 86 -13 138 -22 145 -23 163 -22 444
24 45 7 54 21 28 44 -16 14 -20 15 -33 2z"/>
</g>
</svg>
