<?xml version="1.0" encoding="iso-8859-1"?>
<!-- Generator: Adobe Illustrator 18.1.1, SVG Export Plug-In . SVG Version: 6.00 Build 0)  -->
<svg version="1.1" id="Capa_1" xmlns="http://www.w3.org/2000/svg" xmlns:xlink="http://www.w3.org/1999/xlink" x="0px" y="0px"
	 viewBox="0 0 71.577 71.577" style="enable-background:new 0 0 71.577 71.577;" xml:space="preserve">
<g>
	<g>
		<polygon style="fill:#010002;" points="25.052,57.523 17.894,64.681 53.683,64.681 46.525,57.523 		"/>
		<path style="fill:#010002;" d="M38.276,19.408c0.301,0.021,0.494-0.068,0.501-0.344c0-0.039,0.254-0.193-0.086-0.218
			c-0.057-0.004-0.354-0.018-0.24,0.104c-0.047,0.025-0.236,0-0.24,0.072c0.036,0.029,0.075,0.061,0.111,0.089
			C38.29,19.186,37.954,19.387,38.276,19.408z"/>
		<path style="fill:#010002;" d="M29.579,17.572c0.014-0.007,0.029-0.014,0.039-0.021c-0.021,0-0.072,0-0.118,0.004
			C29.45,17.579,29.636,17.572,29.579,17.572z"/>
		<path style="fill:#010002;" d="M38.695,18.481c0.064,0.004,0.107-0.036,0.111-0.072C38.798,18.413,38.584,18.474,38.695,18.481z"
			/>
		<path style="fill:#010002;" d="M41.482,21.552c0.011,0.047,0.075,0.079,0.075,0.129C41.622,22.207,41.976,21.477,41.482,21.552z"
			/>
		<path style="fill:#010002;" d="M40.588,21.72c-0.018-0.082-0.064-0.093-0.14-0.036C40.459,21.691,40.595,21.795,40.588,21.72z"/>
		<path style="fill:#010002;" d="M29.479,17.687c-0.179,0.021,0.107,0.004,0.193,0C29.758,17.59,29.386,17.612,29.479,17.687z"/>
		<path style="fill:#010002;" d="M38.877,18.589c-0.007,0.111,0.018,0.082,0.018,0.218c0.014,0,0.029,0,0.047,0.004
			c-0.011-0.018-0.029-0.029,0-0.054c0.197,0.097,0.043,0.036,0.043,0.168c0,0.061,0.24,0.032,0.279,0.036
			c-0.072,0.086,0.007,0.1,0.097,0.1c0,0.125-0.168,0.122-0.265,0.115c0,0.143-0.118,0.161-0.118,0.236
			c0,0.021,0.322,0.079,0.372,0.036c0,0.068-0.336,0.122-0.404,0.243c0.122,0.007,1.142-0.082,1.138-0.132
			c-0.043-0.011-0.082-0.018-0.122-0.025c0.14-0.161,0.14-0.308,0.007-0.247c-0.025,0.004-0.032,0.018-0.075,0.021
			c-0.007-0.229-0.365-0.465-0.594-0.523c0.021-0.057,0.222-0.136,0.2-0.229c-0.179,0.079-0.293,0.064-0.354-0.05
			c0.054-0.021,0.097-0.047,0.147-0.075c0.007-0.193-0.49,0.064-0.383,0.104c0,0.018-0.143-0.018-0.154-0.021
			C38.748,18.56,38.791,18.574,38.877,18.589z"/>
		<path style="fill:#010002;" d="M27.575,17.88c0.039,0.004,0.075-0.004,0.104-0.025c-0.039,0.004-0.075,0.004-0.115,0.007
			C27.543,17.876,27.557,17.88,27.575,17.88z"/>
		<path style="fill:#010002;" d="M27.89,17.744c0.047-0.014,0.093-0.018,0.143-0.007c-0.118,0.029-0.247,0.082-0.165,0.079
			c0.075-0.004,0.204-0.021,0.247-0.05c-0.15,0.007-0.125,0.004,0.075-0.018c0-0.011-0.007-0.014-0.018-0.021
			c0.014,0,0.032-0.004,0.05-0.004C28.126,17.726,27.947,17.715,27.89,17.744z"/>
		<path style="fill:#010002;" d="M28.974,17.726c-0.029,0.004-0.057,0.007-0.079,0.011c0.047,0,0.079-0.004,0.111-0.011
			c0.129-0.004,0.243-0.021,0.211-0.05c0.011-0.004,0.036-0.011,0.05-0.014c-0.075-0.072-0.372-0.039-0.472-0.029
			c-0.025,0.014-0.021,0.018,0.025,0.018c-0.014,0.004-0.032,0.011-0.047,0.011c0.011,0.007,0.043,0,0.118-0.004
			c-0.047,0.029-0.1,0.039-0.154,0.032C28.756,17.715,28.863,17.726,28.974,17.726z"/>
		<path style="fill:#010002;" d="M28.642,17.78c-0.054-0.004-0.014-0.032-0.104-0.029c-0.029,0.018-0.011,0.05,0.029,0.05
			C28.591,17.798,28.624,17.79,28.642,17.78z"/>
		<path style="fill:#010002;" d="M29.704,17.733c0.039,0,0.075-0.007,0.104-0.029c-0.104,0.007-0.208,0-0.308,0.025
			C29.5,17.73,29.683,17.737,29.704,17.733z"/>
		<path style="fill:#010002;" d="M39.067,19.014c-0.036,0.007-0.043,0.025-0.043,0.043c0.036,0.004,0.054,0.004,0.064,0.004
			c0-0.021,0.004-0.036,0.004-0.047C39.088,19.014,39.07,19.014,39.067,19.014z"/>
		<path style="fill:#010002;" d="M25.585,25.381c-0.029-0.004-0.089,0.025-0.118,0.057c0.036,0.004,0.093,0.021,0.157,0.018
			C25.628,25.431,25.632,25.385,25.585,25.381z"/>
		<path style="fill:#010002;" d="M25.356,25.872c-0.011,0.021-0.039,0.293,0.032,0.14C25.406,25.979,25.378,25.832,25.356,25.872z"
			/>
		<polygon style="fill:#010002;" points="40.405,17.221 40.405,17.221 40.402,17.221 		"/>
		<path style="fill:#010002;" d="M24.719,28.291c-0.029-0.032-0.097-0.115-0.172-0.132c-0.054-0.011-0.243,0.233,0.19,0.218
			c0.011-0.047,0.011-0.079-0.021-0.111C24.716,28.273,24.719,28.28,24.719,28.291z"/>
		<path style="fill:#010002;" d="M25.732,27.149c0.104,0.004,0.161-0.039,0.172-0.132C25.882,27.038,25.632,27.121,25.732,27.149z"
			/>
		<path style="fill:#010002;" d="M40.581,17.254c-0.011,0-0.014,0-0.025,0c0.05,0.036,0.222,0.018,0.319,0.014
			c-0.075,0.011-0.215,0.032-0.215,0.029c0,0.036,0.243,0.029,0.272,0.036c-0.075,0.004-0.147-0.004-0.229-0.004
			c0.014,0.175,0.497,0.004,0.659-0.032c0.021,0.014,0.05,0.032,0.075,0.036c-0.004,0.021-0.05,0.011-0.05,0.036
			c0.05,0.004,0.132,0.007,0.183,0.014c-0.014,0.007-0.007,0.014,0,0.029c0.097-0.007,0.14-0.029,0.251-0.036
			c-0.118-0.061-0.265-0.075-0.376-0.089c0.011,0,0.025,0,0.039,0c-0.025-0.011-0.061-0.021-0.093-0.036
			c0.222,0.021,0.608-0.039,0.687-0.054c-0.225-0.115-0.616-0.061-0.862-0.064c0.007,0.004,0.014,0.007,0.021,0.011
			c-0.021,0-0.047,0-0.064,0v0.004c-0.039-0.004-0.075-0.004-0.118-0.004c0.021,0.047,0.154,0.039,0.183,0.039
			c0.007,0,0.161,0.007,0.175,0.011c-0.057,0-0.111,0.004-0.168,0c0.007,0.011,0.014,0.021,0.036,0.029
			c-0.089-0.018-0.183-0.029-0.247-0.018c0-0.007,0.007-0.014,0.007-0.021c-0.004-0.004-0.304-0.086-0.157,0.039
			c-0.025-0.004-0.243-0.036-0.179-0.021c-0.021-0.007-0.061-0.007-0.086-0.018c0.007-0.004,0.021-0.007,0.036-0.011
			c-0.082-0.018-0.168-0.014-0.254,0.011c0.032,0.014,0.068,0.025,0.1,0.032C40.484,17.229,40.527,17.243,40.581,17.254z"/>
		<path style="fill:#010002;" d="M28.527,19.236c0.075-0.007,0.236-0.064,0.308-0.097c-0.1-0.025-0.186,0.021-0.276,0.064
			C28.552,19.211,28.538,19.226,28.527,19.236z"/>
		<path style="fill:#010002;" d="M42.821,22.207c-0.082-0.021-0.44-0.054-0.508-0.025c0.007,0.075,0.394,0.29,0.487,0.297
			C42.803,22.482,42.807,22.264,42.821,22.207z"/>
		<path style="fill:#010002;" d="M46.45,23.066c-0.1,0.004-0.251,0.05-0.34,0.086C46.153,23.338,46.453,23.155,46.45,23.066z"/>
		<path style="fill:#010002;" d="M44.532,22.93c0.086,0.05,0.319,0.132,0.419,0.082C44.839,22.969,44.671,22.919,44.532,22.93z"/>
		<path style="fill:#010002;" d="M41.661,21.237c-0.018-0.007-0.029-0.036-0.032-0.064c-0.043,0.032-0.086,0.05-0.14,0.05
			c0.039,0.047,0.075,0.211,0.143,0.229C41.644,21.423,41.647,21.301,41.661,21.237z"/>
		<path style="fill:#010002;" d="M26.093,27.711c-0.111-0.018-0.229,0.079-0.304-0.047c-0.168-0.258-0.179,0.408-0.183,0.476
			c-0.043-0.021-0.737,0.039-0.379,0.247c0.14-0.376,0.458,0.208,0.462,0.208c0.05,0.011,0.272-0.329,0.286-0.183
			c0,0.004,0.469,0.004,0.49,0.007c0,0.011-0.061-0.197-0.086-0.297C26.29,27.976,26.319,27.747,26.093,27.711z"/>
		<path style="fill:#010002;" d="M25.406,27.597c-0.093-0.132,0.054-0.247-0.15-0.304c0.014-0.111-0.283-0.537-0.412-0.666
			c-0.404-0.397-0.684-0.322-1.052,0.15c0.361,0.047,0.404-0.458,0.523-0.057c0.455,0.057,0.551,0.54,0.422,0.845
			C24.97,27.597,25.195,27.883,25.406,27.597z"/>
		<path style="fill:#010002;" d="M26.695,28.616c-0.054,0.161,0.229,0.247,0.308,0.132C26.999,28.674,26.745,28.459,26.695,28.616z"
			/>
		<path style="fill:#010002;" d="M23.975,26.92c0.029-0.068,0.05,0.154,0.161-0.165c-0.039-0.043-0.036,0.011-0.061,0.068
			C24.025,26.834,23.993,26.866,23.975,26.92z"/>
		<path style="fill:#010002;" d="M49.266,29.157c-0.505,0.089-0.698,0.24-0.834-0.372c-0.097-0.422-0.823-0.716-0.92-1.167
			c-0.075-0.34-0.161-0.458-0.379-0.709c-0.208-0.236-0.132-0.637-0.301-0.923c-0.147-0.251-0.175-0.512-0.311-0.769
			c-0.204-0.383-0.608-0.898-0.637-1.328c0.132,0.143,0.286,0.533,0.44,0.558c0.097-0.419,0.111-0.526-0.05-0.931
			c-0.279,0.075-0.519-0.1-0.784,0c-0.358,0.132-0.63,0.082-0.984-0.039c-0.247-0.089-1.263-0.68-1.249,0.004
			c0.014,0.795-0.934-0.24-1.177-0.319c-0.265-0.082-0.698,0.064-0.698-0.39c0-0.258,0.1-0.451,0.115-0.684
			c-0.075,0.072-0.143,0.068-0.208-0.014c-0.115-0.179-0.279,0.054-0.404,0.057c-0.265,0.011-0.508,0.004-0.769,0.011
			c-0.39,0.014-0.812,0.225-1.145,0.415c-0.419,0.243-0.787-0.111-1.02,0.208c0,0,0.007,0,0.014,0
			c-0.215,0.279-0.451,0.523-0.659,0.809c-0.14,0.193-0.089,0.447-0.161,0.666c-0.064,0.208-0.297,0.404-0.494,0.476
			c-0.354,0.129-0.497,0.533-0.644,0.855c-0.118,0.261-0.215,0.508-0.354,0.755c-0.186,0.326,0.064,0.845,0.05,1.199
			c-0.007,0.251-0.1,0.544-0.236,0.752c-0.132,0.208,0.039,0.455,0.032,0.727c-0.007,0-0.014,0-0.021,0
			c0.136,0.218,0.301,0.415,0.476,0.605c0.304,0.336,0.372,0.791,0.698,1.12c0.247,0.247,0.537,0.637,0.931,0.505
			c0.179-0.064,0.322-0.175,0.523-0.179c0.168-0.004,0.293,0.143,0.455,0.14c0.379-0.011,0.762-0.544,1.224-0.555
			c0.336-0.007,0.308,0.569,0.598,0.562c0.945-0.018,0.827,0.659,0.594,1.313c-0.157,0.422,0.254,0.82,0.494,1.117
			s0.261,0.744,0.358,1.106c0.089,0.336,0.254,0.866,0.168,1.217c-0.075,0.347-0.372,0.598-0.433,0.956
			c-0.089,0.505,0.097,0.998,0.322,1.439c0.211,0.419,0.222,0.598,0.272,1.063c0.111,0.998,0.873,1.721,0.866,2.684
			c0.093-0.064,0.404,0.132,0.673-0.011c0.283-0.15,0.526-0.075,0.82-0.107c0.021-0.125,0.558-0.315,0.673-0.462
			c0.258-0.358,0.412-0.762,0.691-1.099c0.308-0.365-0.036-0.63,0.326-0.934c0.34-0.283,0.451-0.172,0.469-0.719
			c0.007-0.233-0.44-0.816,0.047-0.913c0.057-0.347,0.397-0.494,0.666-0.659c0.759-0.469,0.175-1.127,0.483-1.782
			c0.104-0.236-0.251-0.515-0.243-0.777c0-0.247-0.061-0.494-0.057-0.744c0-0.247,0.211-0.372,0.258-0.601
			c0.19-0.866,0.931-1.106,1.389-1.775c0.394-0.58,1.17-1.943,0.877-2.645C49.818,28.949,49.553,29.096,49.266,29.157z"/>
		<path style="fill:#010002;" d="M42.703,18.878c0.036-0.043,0.068-0.082,0.097-0.122C42.764,18.757,42.628,18.818,42.703,18.878z"
			/>
		<path style="fill:#010002;" d="M31.007,21.298c0.007-0.018-0.018-0.029-0.021-0.05c-0.089,0.039-0.165,0.093-0.229,0.165
			c-0.032,0.064,0.222,0.054,0.268-0.043C30.875,21.373,30.982,21.351,31.007,21.298z"/>
		<path style="fill:#010002;" d="M35.585,17.984c-0.018-0.004-0.036-0.014-0.032-0.025c0.079-0.004,0.165-0.021,0.2-0.05
			c-0.057,0.004-0.104-0.004-0.15-0.032c0.021-0.057,0.125,0.014,0.15-0.061c0.032-0.082-0.161-0.072-0.15-0.093
			c0.043-0.1,0.347,0.039,0.39-0.061c-0.05-0.025-0.1-0.043-0.154-0.047c0.021,0,0.057-0.007,0.075-0.011
			c-0.089-0.025-0.179-0.029-0.272-0.018c0.104-0.057,0.691-0.186,0.734-0.265c0.161-0.007,0.469-0.029,0.512-0.097
			c0.014-0.021-1.432,0.154-1.517,0.165c0.018-0.014,0.315-0.111,0.322-0.118c0.004-0.007-0.057-0.004-0.143,0.004
			c0.104-0.018,0.19-0.047,0.243-0.093c-0.766-0.014-1.593-0.061-2.341,0.111c0.007,0.007,0.029,0.004,0.039,0.014
			c-0.039,0-0.075,0.004-0.115,0.018c0.036,0.025,0.075,0.036,0.125,0.036c-0.064,0.004-0.365-0.057-0.401,0
			c-0.004,0.007,0,0.014,0.007,0.021c-0.061-0.021-0.143-0.036-0.172,0.018c-0.111,0.007-0.863,0.039-0.945,0.193
			c0.047,0.018,0.093,0.021,0.14,0.014c-0.079,0.15-0.422,0.018-0.487,0.154c-0.021,0.047,0.308,0.021,0.34,0.021
			c-0.068,0.075-0.251-0.007-0.308,0.075c0.047-0.011,0.089-0.004,0.136,0.014c-0.011,0.011-0.025,0.011-0.047,0.018
			c0.047,0.025,0.093,0.032,0.143,0.021c-0.004,0-0.011-0.004-0.014-0.007c0.147-0.039,0.691-0.039,0.591,0.218
			c0.068,0.018,0.064,0.043-0.004,0.079c0.061-0.004,0.222,0.089,0.247,0.093c-0.047,0.072-0.143-0.014-0.211,0
			c-0.007,0.043,0.165,0.05,0.236,0.068c-0.075,0.089-0.276,0.115-0.311,0.236c0.014-0.007,0.032-0.004,0.05,0
			c-0.097,0.132,0.068,0.15,0.111,0.204c-0.208,0.111,0.361,0.372,0.44,0.376c0.122,0.011,0.397-0.458,0.63-0.501
			c-0.004,0.011-0.007,0.021-0.011,0.036c0.251,0.007,0.379-0.136,0.598-0.2c0.336,0.007,0.691-0.054,1.009-0.161
			c-0.075-0.011-0.415-0.007-0.397-0.064c0.107-0.011,0.05-0.011,0.068-0.068c0.05,0.014,0.415,0.15,0.44,0.072
			c0.036-0.122-0.268-0.172-0.322-0.2c0.036-0.111,0.258,0.183,0.319,0c-0.061-0.032-0.122-0.061-0.186-0.079
			C35.298,18.016,35.484,18.102,35.585,17.984z"/>
		<path style="fill:#010002;" d="M43.297,18.785c0.075,0.004,0.1-0.054,0.104-0.107c-0.039-0.014-0.183-0.057-0.064,0.036
			c-0.043,0-0.072,0.014-0.111,0.014C43.233,18.746,43.243,18.782,43.297,18.785z"/>
		<path style="fill:#010002;" d="M31.791,21.069c-0.025,0-0.064,0.004-0.079,0.014c0.029-0.072,0.054-0.111,0.072-0.154
			c-0.039,0.014-0.125,0.011-0.193,0c-0.029,0.007-0.057,0.011-0.086,0.018c0,0,0.011-0.018,0.011-0.021c-0.039,0-0.075,0-0.118,0
			c0.004-0.032,0.025-0.057,0.061-0.064c-0.072-0.036-0.14-0.029-0.204,0.011c0.004-0.014,0.358-0.301,0.268-0.301
			c-0.286,0-0.497,0.404-0.766,0.487c0,0.014,0.021,0.025,0.039,0.025c-0.032,0.072-0.14,0.05-0.172,0.115
			c-0.004,0.004,0.676,0.057,0.755,0.057c-0.043,0.014-0.079,0.043-0.107,0.079c-0.014,0.029,0.293-0.132,0.29-0.129
			c0.132,0.136,0.115,0.333,0.251-0.014c-0.05,0.021-0.032,0.029-0.1,0.029C31.752,21.115,31.737,21.172,31.791,21.069z"/>
		<path style="fill:#010002;" d="M35.602,18.542c0.408,0.039,0.637,0.215,1.074,0.021c0.032-0.054-0.147-0.143-0.025-0.172
			c-0.057-0.004-0.512-0.054-0.519,0c-0.064-0.036-0.14,0.014-0.183-0.047c-0.047,0.025-0.179,0.075-0.122-0.057
			c-0.061-0.004-0.154,0.021-0.211,0.029c-0.007,0.021,0.168,0.107,0.161,0.1c-0.054,0.007-0.161,0.011-0.222,0.004
			c0.021,0.032,0.107,0.011,0.161,0.025c-0.029,0.032-0.05,0.047-0.075,0.079C35.635,18.531,35.62,18.538,35.602,18.542z"/>
		<path style="fill:#010002;" d="M26.394,18.639c-0.014,0.014-0.032,0.025-0.05,0.039c0.025-0.004,0.05-0.004,0.068-0.011
			C26.416,18.646,26.398,18.649,26.394,18.639z"/>
		<path style="fill:#010002;" d="M27.79,18.513c0,0-0.021-0.047-0.032-0.039c0.057-0.039,0.179-0.025,0.243-0.043
			c-0.129-0.1-0.233,0.011-0.147-0.175c0.018-0.039,0.222-0.165,0.233-0.161c-0.24-0.082-0.422,0.197-0.598,0.208
			c0.032,0-0.272-0.107-0.458-0.061c0.011-0.05-0.004-0.068-0.032-0.064c0.004-0.007,0.007-0.021,0.004-0.036
			c-0.025,0.018-0.047,0.039-0.068,0.057c0,0,0,0,0.004,0c-0.007,0.004-0.018,0.011-0.025,0.014c-0.1,0.075-0.19,0.161-0.286,0.236
			c0.061-0.007,0.143-0.021,0.204,0.004c-0.15,0.014-0.229,0.043-0.333,0.107c-0.011,0.007-0.021,0.018-0.032,0.025
			c0.036,0,0.079-0.007,0.086,0C26.602,18.628,27.614,18.592,27.79,18.513z"/>
		<path style="fill:#010002;" d="M27.199,18.603c-0.118-0.004-0.208,0-0.236,0.021C26.934,18.646,27.138,18.61,27.199,18.603z"/>
		<polygon style="fill:#010002;" points="27.199,18.603 27.214,18.603 27.221,18.599 		"/>
		<path style="fill:#010002;" d="M0,6.896v46.525h71.577V6.896H0z M49.739,24.877c-0.029-0.039-0.075-0.075-0.118-0.118
			c0.097,0.247,0.183,0.497,0.265,0.748c0.007-0.029,0.014-0.057,0.05-0.061c0.075,0.147-0.018,0.315,0.143,0.415
			c0.047,0.157,0.068,0.329,0.107,0.49c-0.075-0.293-0.208-0.562-0.301-0.845c-0.007,0.025-0.007,0.05-0.047,0.057
			c-0.1-0.286-0.455-0.437-0.601-0.727c-0.247-0.501,0.143-0.304,0.379-0.079c-0.05-0.122-0.079-0.251-0.132-0.372
			C49.567,24.558,49.671,24.705,49.739,24.877z M48.579,22.493c-0.014,0-0.036,0.004-0.05,0.011
			c0.043,0.057,0.061,0.125,0.093,0.183c-0.24-0.412-0.487-0.823-0.762-1.21C48.103,21.813,48.365,22.139,48.579,22.493z
			 M45.902,19.218c0.412,0.383,0.791,0.805,1.16,1.231c-0.58-0.673-1.181-1.331-1.872-1.89
			C45.451,18.796,45.702,19.029,45.902,19.218z M27.325,17.937c0.004,0,0.007,0.004,0.014,0.004c-0.014,0-0.025,0.007-0.039,0.007
			C27.31,17.944,27.317,17.941,27.325,17.937z M23.671,21.477c0.029-0.039,0.072-0.072,0.1-0.111
			c-0.036,0.05-0.082,0.089-0.118,0.143c-0.626,0.877-1.156,1.818-1.578,2.806c0.426-0.995,0.956-1.933,1.578-2.806
			C23.66,21.502,23.663,21.487,23.671,21.477z M28.273,43.057c0.018-0.043,0.043-0.064,0.089-0.064
			c0.032,0.068,0.075,0.129,0.132,0.19C28.42,43.143,28.344,43.1,28.273,43.057z M49.048,37.023
			c-0.075,0.068-0.136,0.15-0.161,0.308c-2.537,4.624-7.451,7.763-13.099,7.763c-1.976,0-3.858-0.387-5.583-1.084
			c-0.068-0.197-0.773-0.336-0.372-0.58c0.261-0.125,0.054-0.469-0.011-0.608c0.047-0.011,0.276,0.064,0.208-0.082
			c0.043,0.093-0.63-0.215-0.361-0.286c0.143-0.036,0.497,0.075,0.394-0.161c0.004-0.118-0.225-0.372-0.004-0.419
			c0.186-0.05,0.497-0.086,0.587-0.293c0.254-0.573-0.286-0.412-0.429-0.791c0.029,0.079,0.795-0.039,0.841-0.286
			c0.072-0.372,0.204-0.687,0.254-1.056v0.007c0-0.147,0.043-0.265,0.136-0.372c-0.054-0.157-0.104-0.322-0.15-0.483
			c-0.036-0.193,0.222-0.458,0.358-0.544c0.497-0.311,0.58-0.519,0.727-1.084c0.047-0.333-0.293-1.088-0.175-1.31
			c0.154-0.293,0.787-1.51,0.125-1.653c-0.308-0.064-0.487-0.251-0.777-0.329c-0.293-0.082-0.616,0.011-0.866,0.036
			c-0.054-0.233-0.129-0.222-0.333-0.308c-0.537-0.225-0.286,0.272-0.562,0.297c-0.279,0.032-0.587-0.326-0.372-0.616
			c0.143-0.19-0.376-0.945-0.684-0.92c-0.265,0.007-0.963-0.057-1.127-0.297c-0.204-0.308-0.941-0.39-1.016-0.73
			c-0.193,0.039-0.422,0.165-0.555,0.118c-0.111-0.039-0.433,0.004-0.512-0.082c-0.104-0.118-0.319-0.276-0.497-0.268
			c0.018,0.093,0.118,0.05,0.161,0.143c-0.501,0.032-0.136,0.537-0.229,0.54c-0.222,0.011-0.161-0.458-0.161-0.562
			c0.064-0.05,0.072-0.097,0.025-0.147c-0.089-0.125-0.161,0.089-0.229,0.122c-0.304,0.136-0.809,0.412-0.73,0.823
			c-0.383,0.157,0,0.655,0.064,0.952c-0.036,0.072-0.011,0.115,0.075,0.143c0.004,0.311-0.412,0.644-0.419,0.948
			c-0.007,0.358-0.107,0.404,0.222,0.58c0.004,0.218-0.229,0.319-0.168,0.562c0.064,0.258,0.29,0.268,0.404,0.426
			c0.225,0.329,0.512,0.676,0.795,0.981c0.336,0.365,0.426,0.837,0.973,0.934c0.429,0.057,0.909,0.326,1.081,0.727
			c0.157,0.372,0.211,0.748,0.344,1.12c0.064,0.394,0.025,1.084,0.265,1.399c0.222,0.548,0.261,0.891,0.261,1.446
			c0,0.283,0.161,0.315,0.254,0.515c0.072,0.15,0,0.286,0.086,0.415c-4.345-2.609-7.254-7.369-7.254-12.805
			c0-0.902,0.111-1.779,0.265-2.638c-0.004,0-0.007-0.025-0.014-0.025c0.004-0.032,0.021-0.061,0.029-0.093
			c-0.007,0.039-0.004,0.082-0.011,0.122c0.104,0.047,0.154,0.447,0.293,0.487c0.125,0.032,0.251-0.326,0.322-0.047
			c0.1,0.025,0.054,0.505,0.093,0.601c0.104,0.258,0.293,0.394,0.494,0.458c-0.061,0.218-0.025,0.401-0.011,0.619
			c0.018,0.243-0.183,0.487-0.125,0.712c0.018,0.007,0.036,0.014,0.057,0.021c0-0.029,0.018-0.075,0.043-0.107
			c0.225,0.075,0.075,1.224,0.379,1.346c0.15,0.064,0.175-0.673,0.49-0.565c0.154,0.057,0.029,0.451,0.043,0.562
			c0,0.004,0.251-0.225,0.272-0.258c-0.054-0.186-0.061-0.698-0.394-0.551c-0.701,0.301-0.401-0.923-0.258-1.288
			c0.161-0.422,0.766-1.192-0.047-1.245c-0.673-0.039,0.104-0.673,0.19-0.82c0.064-0.075,0.122-0.14,0.183-0.268
			c0.093-0.2,0.261-0.344,0.358-0.54c-0.762-0.14-0.795,0.852-1.496,0.698c-0.519-0.107,0.598-1.965,0.659-2.097
			c0,0,0.007,0.004,0.011,0.004c0.218-0.379,0.494-0.562,0.873-0.766c0.254-0.136,0.429,0.243,0.616,0.161
			c-0.029-0.061,0.054-0.122,0.122-0.225c-0.043,0.018-0.032,0.021-0.072-0.004c0.111-0.036,0.211-0.011,0.304-0.036
			c-0.032,0.061,0.608,0.165,0.612,0.175c0.029,0.093-0.408,1.199-0.179,1.231c0.258,0.032,0.462-0.734,0.48-0.905
			c0.075-0.687,0.587-0.927,1.16-1.177c-0.004-0.004-0.004-0.007-0.007-0.011c0.143-0.097,0.315-0.118,0.451-0.222
			c-0.107-0.118,0.054-0.082,0.111-0.161c-0.025-0.007-0.054-0.014-0.05-0.061c0.079-0.021,0.132-0.068,0.157-0.14
			c-0.011,0-0.029,0-0.043,0c-0.014-0.05,0.157-0.344,0.2-0.387c-0.007,0.021-0.075,0.308-0.086,0.308
			c0.2,0.004,0.236-0.329,0.34-0.387c-0.036-0.082,0.53-0.286,0.662-0.319c-0.032-0.039-0.161-0.004-0.208-0.004
			c0.225-0.1,0.533-0.082,0.744-0.161c-0.336,0.007,0.276-0.501,0.48-0.458c0.193,0.043,0.594-0.233,0.834-0.243
			c-0.047,0.064-0.029,0.089,0.057,0.079c-0.322,0.014-0.573,0.422-0.333,0.293c0.147-0.075,0.798-0.175,0.855-0.301
			c0.036-0.072-0.719-0.021-0.383-0.44c-0.032,0-0.089-0.014-0.147-0.014c0.097-0.061,0.276-0.032,0.34-0.147
			c0.075-0.136-0.87,0.082-0.916,0.086c0.387-0.311,2.265-0.247,2.079-0.877c-0.057,0.018-0.669,0.179-0.68,0.1
			c0.143-0.043,0.487-0.075,0.562-0.143c0.047-0.057-0.487-0.007-0.379-0.183l0.004-0.007c-0.125,0-0.168-0.047-0.222-0.079
			c0.319-0.1-0.082-0.641-0.268-0.387c0.021,0.032,0.054,0.05,0.086,0.068c-0.082-0.025-0.147-0.047-0.05-0.215
			c-0.154,0.283-0.78,0.1-0.991,0c-0.727-0.347-0.505,0.136-1.049,0.258c0.011,0.265,0.376,0.265-0.125,0.462
			c-0.404,0.161-0.165,0.251-0.372,0.48c-0.115,0-0.129-0.014-0.168-0.029l0,0c-0.036,0.004-0.072-0.004-0.104-0.018
			c0.007,0.011,0.075,0.007,0.1,0.018c0.036-0.05-0.05-0.054-0.104-0.043c0.018-0.079,0.225-0.208,0.082-0.308
			c-0.429,0.011-0.376-0.297-0.902-0.276c0.147-0.15,0.168-0.236-0.054-0.2c0.286-0.193,0.837-0.361,1.066-0.569
			c-0.018-0.014-0.043-0.029-0.064-0.036c0.261,0.021,0.701-0.025,0.877-0.175c-0.122-0.011-0.279,0.004-0.261-0.061
			c0.122,0.039,0.272,0.039,0.429,0.018c-0.14,0.057-0.329,0.161-0.397,0.222c0.036-0.004,0.125-0.014,0.186-0.007
			c-0.036,0.025-0.075,0.05-0.021,0.05c0.208-0.011,0.551-0.047,0.755-0.104c-0.011-0.025-0.104-0.011-0.147-0.039
			c-0.011-0.007,0.018-0.025,0.014-0.039c-0.021-0.054-0.222-0.079-0.268-0.061c0.004-0.014,0-0.025,0-0.039
			c0.05-0.011,0.097-0.025,0.147-0.036c-0.021,0.014-0.004,0.029,0.047,0.029c-0.007-0.018,0.018-0.043-0.043-0.032
			c0.29-0.082,0.562-0.215,0.698-0.333c-0.072,0.004-0.154-0.029-0.225-0.039c0.1-0.004,0.19-0.004,0.24-0.004
			c-0.072,0.054,0.268-0.032,0.358,0.014c-0.004,0-0.007,0-0.011,0c0.029,0.004,0.057,0.014,0.079,0.039
			c-0.036,0.007-0.072,0.018-0.107,0.029c0.004-0.007,0.215,0,0.261,0.025c-0.086-0.007-0.165,0.011-0.24,0.061
			c-0.004,0.004,0.283,0.082,0.286-0.032c0.179,0.132-0.354,0.225-0.208,0.276c-0.186,0.082-0.54,0.025-0.673,0.204
			c-0.025,0.032,0.587-0.039,0.644-0.007c0.143,0.072,0.415,0.233,0.644,0.186C31.344,19.14,31,18.975,31,18.979
			c0.311-0.054,0.301,0.104,0.383-0.165c-0.107,0.014-0.14-0.089-0.218-0.082c0.018-0.054,0.047-0.021,0.064-0.057
			c0.143,0.021,0.44,0.104,0.465-0.079c0.004-0.011-0.394-0.147-0.422-0.154c0.036-0.025,0.054-0.025,0.1-0.039
			c-0.032-0.018-0.072-0.021-0.111-0.014c0.029-0.018,0.061-0.018,0.1-0.021c-0.029-0.029-0.064-0.039-0.104-0.032
			c0.004-0.007,0.007-0.014,0.011-0.025c-0.326-0.014-0.608-0.115-0.956-0.118c0.018,0,0.057-0.068,0.054-0.079
			c-0.05-0.14-0.859,0.136-0.669,0.05c-0.089,0,0.2-0.075,0.261-0.086c-0.168-0.011-0.322-0.011-0.494,0.025
			c0.061-0.021,0.118-0.032,0.175-0.061c-0.361,0.014-0.494,0.014-0.755,0.197c0.086,0.004,0.165-0.018,0.243-0.064
			c-0.014,0-0.032,0-0.05,0c0.093-0.043,0.251-0.029,0.34-0.061c-0.054,0.032-0.379,0.068-0.329,0.165c0,0,0.225,0.007,0.251,0.014
			c-0.072,0.061-0.161,0.072-0.265,0.025c-0.089,0.075,0.648,0.082,0.651,0.082c-0.089,0.025-0.451,0.347-0.573,0.233
			c-0.018-0.079,0.025-0.115,0.129-0.111c0.082-0.072-0.351,0.032-0.329,0.032c0.107-0.089-0.089-0.054,0.075-0.097
			c-0.039-0.018-0.15,0.007-0.161-0.021c0.054-0.014,0.104-0.032,0.157-0.05c0.118-0.089-0.383-0.079-0.523,0.025
			c-0.036,0.029,0.183,0.047,0.143,0.075c-0.036,0.021-0.072,0.039-0.107,0.061c0.039-0.007,0.068-0.011,0.107-0.021
			c-0.054,0.079-0.261,0.05-0.387,0.15c-0.079,0.011-0.068,0-0.036-0.018c-0.183,0.047-0.684-0.014-0.998-0.025
			c-0.115,0.097-0.322,0.115-0.394,0.089c-0.236-0.079-0.437-0.007-0.619,0.107c-0.15,0.129-0.311,0.243-0.458,0.376
			c0.036-0.032,0.061-0.075,0.093-0.104c0.107-0.097,0.233-0.193,0.365-0.272c0.05-0.043,0.097-0.079,0.147-0.122
			c-0.025,0-0.047,0.004-0.068,0.011c0.032-0.025,0.068-0.05,0.097-0.079c0.021,0,0.014,0.018,0.018,0.029
			c0.025-0.018,0.047-0.039,0.072-0.061c-0.018,0-0.029,0-0.047,0c0.029-0.021,0.054-0.011,0.079-0.025
			c0.043-0.036,0.086-0.075,0.132-0.111c-0.011,0-0.029,0-0.039,0c0.043-0.036,0.208-0.172,0.326-0.236
			c0.007-0.004,0.014-0.011,0.021-0.014c-0.007,0-0.011,0-0.018,0c0.029-0.021,0.057-0.039,0.086-0.061c0,0.004,0,0.004,0,0.007
			c0.054-0.039,0.115-0.072,0.165-0.104c0.057,0,0.115,0,0.172-0.011c0.014-0.011,0.047-0.021,0.068-0.021c0,0.004,0,0.004,0,0.007
			c0.265-0.061,0.659,0.057,0.902-0.089c0.029-0.018-0.319,0.007-0.15-0.075c-0.032,0-0.347,0.057-0.2,0.061
			c-0.018,0.018-0.043,0.025-0.075,0.025c0.011,0,0.025,0.004,0.061,0c-0.183,0.072-0.361-0.05-0.53-0.032
			c-0.014,0.007-0.011,0.011,0,0.014c-0.032,0-0.061,0.007-0.089,0.018c0.039-0.029,0.086-0.054,0.125-0.079c0,0,0.004,0,0.007,0
			c0.086-0.004,0.104-0.018,0.057-0.032c-0.011,0-0.014,0.011-0.025,0.011c2.376-1.61,5.204-2.602,8.289-2.602
			c2.942,0,5.683,0.855,7.992,2.323c-0.204-0.097-0.404-0.165-0.594-0.183c0.043-0.14-0.429-0.054-0.293-0.029
			c-0.19,0.029-0.412-0.032-0.591,0.029c0.021,0.007,0.014,0.004,0.047,0.014c-0.072-0.007-0.136,0-0.204,0.021
			c0.047,0,0.047,0,0.079,0.007c-0.011,0-0.394-0.032-0.408,0.018c0,0,0.054,0.007,0.075,0.007c-0.018,0-0.075,0.011-0.086,0.021
			c0.115,0.007,0.161-0.014,0.279-0.018c-0.029,0.093-0.895,0.444-1.006,0.447c0.05,0.007,0.075,0.014,0.132,0.025
			c-0.175-0.018-0.92,0.125-0.526,0.394c-0.039,0.018-0.068,0.043-0.079,0.075c0.064-0.011,0.064-0.011,0.14-0.004
			c0.007,0.089-0.089,0.032-0.082,0.089c0.021,0.2,0.573,0.057,0.641,0.018c0.193-0.118,0.24,0.004,0.354,0.172
			c0.043,0.064,0.222,0.412,0.308,0.422c0.1,0.007,0.544-0.1,0.54-0.247c-0.372-0.064,0.222-0.308,0.208-0.34
			c-0.047-0.172-0.279-0.118-0.308-0.311c-0.032-0.183,0.562-0.132,0.523-0.251c0.054-0.072,0.476-0.297,0.58-0.039
			c0.007,0.021-0.53,0.218-0.576,0.211c0.054,0.068,0.039,0.147,0.15,0.175c-0.2,0.24,1.109,0.208,1.21,0.319
			c-0.276,0.1-0.573-0.097-0.827,0.036c-0.082,0.043,0.211,0.15,0.215,0.24c0-0.1-0.673,0.05-0.619,0.419
			c-0.072,0-0.136-0.004-0.204-0.007c0-0.007,0.007-0.025,0.014-0.043c-0.168-0.061-0.852,0.179-0.823-0.029
			c-0.183-0.032-0.397-0.018-0.58-0.036c-0.014,0.043-0.004-0.018,0.011-0.097c0.039,0.014,0.107-0.007,0.115,0.05
			c0.014-0.086-0.029-0.111-0.097-0.122c0.021-0.072,0.043-0.132,0.05-0.132c-0.021-0.047-0.075-0.082-0.089-0.186
			c-0.358,0.14-0.358,0.14-0.161,0.472c0.082,0.15-0.265,0.132-0.365,0.122c-0.336-0.025-0.293,0.268-0.573,0.326
			c-0.329,0.072-0.383,0.218-0.769,0.183c0,0.064,0.029,0.107,0.036,0.161c-0.057,0.011-0.544-0.089-0.54,0.021
			c0,0.157,0.827,0.247,0.648,0.551c0.007,0,0.007-0.004,0.014-0.007c0.021,0.419-0.097,0.308-0.401,0.351
			c-0.272-0.021-0.533-0.093-0.809-0.115c-0.315-0.021-0.19,0.183-0.19,0.336c0,0.107-0.218,0.923,0.036,0.941
			c0.236,0.014,0.329-0.072,0.476,0.161c0.118,0.183,0.49-0.1,0.684-0.021c0.168-0.072,0.358-0.204,0.476-0.372
			c-0.397-0.172,0.505-0.558,0.519-0.594c-0.175-0.437,0.48-0.089,0.676-0.19c0.397-0.204,0.455-0.086,0.755,0.229
			c-0.057-0.125,1.321,0.956,0.895,0.909c0.029,0.183,0.258-0.172,0.265-0.14c-0.05-0.297-0.208-0.261,0.204-0.15
			c0-0.254-0.44-0.197-0.483-0.426c-0.286-0.029-0.734-0.412-0.773-0.687c-0.025-0.175,0.841,0.426,0.916,0.429
			c0.039,0.2,0.458,0.243,0.508,0.544c0.036,0.175,0.39,0.53,0.558,0.548c-0.086,0.186,0.043,0.29,0.258,0.315
			c-0.036-0.018-0.089-0.258-0.097-0.297c0.089,0.079,0.197,0.143,0.301,0.086c-0.183-0.154-0.272-0.304-0.433-0.458
			c-0.021-0.136,0.24,0.05,0.24,0.05c0.004-0.047-0.004-0.079-0.025-0.129c0.157-0.029,0.179-0.1,0.351,0.018
			c0.215,0.154,0.183-0.047,0.379-0.018c0,0.025,0.061,0.061,0.068,0.079c-0.082,0.032-0.58-0.05-0.537,0.14
			c0.029,0.136,0.236,0.047,0.032,0.258c0.19,0.097,0.297,0.208,0.455,0.347c-0.004,0.011-0.029,0.029-0.047,0.032
			c0.537,0.054,0.984,0.272,1.521,0.129c0.068,0.247,0.011,0.44-0.004,0.687c-0.007,0.072,0.014,0.319-0.05,0.369
			c-0.021,0.018,0.222,0.483,0.229,0.58c0.029,0.659,1.013,1.02,1.149,1.618c0.079,0.365,0.372,0.583,0.587,0.866
			c0.283,0.376,0.387,0.662,0.598,1.07c0.376,0.734,0.866,0.2,1.453,0c-0.043-0.265-0.043-0.537-0.089-0.798
			c0.054,0.258,0.132,0.505,0.172,0.762c-0.029,0.007-0.054,0.025-0.079,0.032c0.104,0.705,0.243,1.399,0.243,2.133
			C50.719,32.636,50.115,34.969,49.048,37.023z"/>
		<path style="fill:#010002;" d="M28.498,18.12c-0.104,0.072-0.2,0-0.297,0.064c0.132,0.179,0.476,0.061,0.616-0.021
			c-0.018,0-0.061-0.004-0.075-0.007c0.097-0.072-0.036-0.025-0.086-0.021c0.072-0.011,0.14-0.036,0.208-0.064
			C28.842,18.084,28.223,18.113,28.498,18.12z"/>
		<path style="fill:#010002;" d="M28.527,17.855C28.527,17.855,28.527,17.851,28.527,17.855l-0.043,0.025
			c0.014,0.004,0.021,0.014,0.064,0.007c-0.007,0.004-0.011,0.007-0.014,0.014c0.05-0.004,0.129-0.014,0.204-0.021
			C28.692,17.873,28.527,17.812,28.527,17.855z"/>
		<path style="fill:#010002;" d="M29.132,17.937c0.004,0,0.433,0.014,0.319-0.047c-0.082-0.025-0.157-0.014-0.236,0.025
			C29.203,17.916,29.153,17.926,29.132,17.937z"/>
		<path style="fill:#010002;" d="M28.846,17.823c-0.018,0.018,0.032,0.018,0.089,0.014c-0.082,0.05-0.15-0.018-0.222,0.025
			c0,0.004,0.011,0.011,0.025,0.018c0.068-0.004,0.132-0.007,0.175,0.007c-0.047,0.014-0.147,0.025-0.197,0.057
			c0.079-0.05,0.462,0.072,0.458-0.129C29.178,17.823,28.874,17.819,28.846,17.823z"/>
		<polygon style="fill:#010002;" points="28.745,17.887 28.742,17.884 28.735,17.884 		"/>
		<path style="fill:#010002;" d="M28.13,18.492c-0.247,0.039,0.225,0.039,0.297,0.021C28.506,18.342,28.037,18.51,28.13,18.492z"/>
		<path style="fill:#010002;" d="M28.423,17.93c-0.061,0.011-0.107,0.018-0.161,0.047c0.032,0,0.032,0,0.068,0
			C28.377,17.984,28.409,17.969,28.423,17.93z"/>
		<path style="fill:#010002;" d="M30.316,21.269c-0.025,0.043,0.254,0.204,0.326,0.05c-0.118,0.036-0.215,0.011-0.283-0.079
			C30.345,21.24,30.324,21.251,30.316,21.269z"/>
		<path style="fill:#010002;" d="M41.676,19.14c0.1,0.029,0.1-0.097,0.2-0.107c-0.132-0.222-0.379,0.011-0.125,0.064
			C41.747,19.115,41.708,19.14,41.676,19.14z"/>
		<path style="fill:#010002;" d="M30.005,17.651c0.018,0,0.032-0.004,0.043-0.007c-0.007,0-0.025,0-0.029,0
			C30.016,17.644,30.009,17.647,30.005,17.651z"/>
		<path style="fill:#010002;" d="M31.859,17.493c-0.004-0.014-0.032-0.018-0.064-0.021c0.057,0,0.089,0,0.107-0.021
			c-0.029,0-0.054,0-0.082,0c0.311-0.079,0.655-0.072,0.966-0.157c-0.057,0-0.157,0.007-0.175,0
			c0.029-0.004,0.383-0.004,0.401-0.043c0.025-0.054-0.569,0.036-0.344-0.021c-0.433-0.154-1.657-0.047-2.086,0.115
			c0.079,0,0.157-0.007,0.236-0.014c-0.047,0.007-0.075,0.011-0.125,0.021c0.093,0.014,0.179-0.021,0.272-0.014
			c-0.097,0.007-0.175,0.007-0.261,0.036c0.054,0,0.104-0.004,0.154-0.004c-0.036,0.004-0.072,0.011-0.107,0.014
			c0.014,0.025,0.089,0.032,0.186,0.032c0.054,0.018,0.032,0.025-0.061,0.025c0.039,0.007,0.14,0.043,0.129,0.05
			c-0.197,0.136-0.225-0.018-0.344,0.05c0.054-0.032,0.05-0.043-0.011-0.043c-0.082,0.043-0.322-0.061-0.44-0.057
			c-0.025,0.014,0.032,0.014,0.064,0.018c-0.072,0-0.14,0.007-0.208,0.014c0.004,0.011,0.018,0.011,0.025,0.014
			c-0.054,0-0.111-0.004-0.15,0.018c0.032,0.018,0.072,0.025,0.107,0.021c-0.057,0-0.122,0-0.183,0
			c-0.05,0.036,0.018,0.036,0.136,0.032c-0.007,0.004-0.018,0.004-0.029,0.004c0.097,0,0.251,0.011,0.297,0.018
			c-0.107,0-0.211,0.011-0.311,0.032c0.014,0.021,0.039,0.029,0.061,0.029c0.014,0,0.029,0,0.05-0.004c-0.004,0-0.014,0-0.018,0.004
			c0.089-0.018,0.308-0.004,0.387-0.007c0.004-0.011-0.004-0.011-0.007-0.021c0.097-0.021,0.261-0.036,0.358,0.036
			c-0.061,0.004-0.505-0.047-0.308,0.039c-0.075,0.004-0.147,0.018-0.218,0.036c0.354-0.036,0.909,0.168,1.145-0.064
			c0.014-0.011-0.086-0.004-0.125,0c0.057-0.05,0.186-0.025,0.215-0.093C31.637,17.554,31.712,17.522,31.859,17.493z"/>
		<path style="fill:#010002;" d="M30.946,20.854c-0.1-0.054-0.168-0.136-0.372-0.104C30.664,20.815,30.832,20.94,30.946,20.854z"/>
		<path style="fill:#010002;" d="M30.66,18.002c-0.036,0.029,0.107,0.061,0.118,0.061c0.097-0.004,0.297,0.004,0.39-0.043
			C31.047,17.994,30.775,17.916,30.66,18.002z"/>
		<path style="fill:#010002;" d="M30.932,17.866c0.021-0.011,0.047-0.018,0.072-0.018c-0.011-0.072-1.12,0.025-1.045,0.004
			c-0.029-0.011-0.15,0.011-0.118-0.025c0.05,0,0.097-0.004,0.147-0.004c-0.018-0.057-0.591-0.064-0.648-0.029
			c0.061,0.025,0.118,0.036,0.183,0.036c0.072-0.043,0.115-0.029,0.132,0.047c-0.24,0.043,0.215,0.054,0.279,0.05
			c0.247-0.14,0.766,0.111,1.045-0.061C30.979,17.866,30.953,17.866,30.932,17.866z"/>
	</g>
</g>
<g>
</g>
<g>
</g>
<g>
</g>
<g>
</g>
<g>
</g>
<g>
</g>
<g>
</g>
<g>
</g>
<g>
</g>
<g>
</g>
<g>
</g>
<g>
</g>
<g>
</g>
<g>
</g>
<g>
</g>
</svg>
