<?xml version="1.0" standalone="no"?>
<!DOCTYPE svg PUBLIC "-//W3C//DTD SVG 20010904//EN"
 "http://www.w3.org/TR/2001/REC-SVG-20010904/DTD/svg10.dtd">
<svg version="1.0" xmlns="http://www.w3.org/2000/svg"
 width="700.000000pt" height="700.000000pt" viewBox="0 0 700.000000 700.000000"
 preserveAspectRatio="xMidYMid meet">
<metadata>
Created by potrace 1.11, written by Peter Selinger 2001-2013
</metadata>
<g transform="translate(0.000000,700.000000) scale(0.100000,-0.100000)"
fill="#000000" stroke="none">
<path d="M5 6321 c-3 -2 -5 -1025 -5 -2273 0 -2153 1 -2268 18 -2269 9 -1
1584 -2 3499 -3 l3483 -1 0 2275 0 2276 -3495 0 c-1923 0 -3498 -2 -3500 -5z
m3720 -830 c148 -25 261 -60 402 -126 86 -40 169 -90 118 -70 -31 12 -126 5
-142 -10 -7 -8 -39 -22 -69 -32 -59 -18 -74 -34 -54 -58 8 -10 24 -13 51 -9
37 5 39 4 45 -23 5 -24 10 -29 32 -27 40 2 42 3 42 18 0 7 7 19 15 26 13 11
13 14 -2 25 -18 14 -15 25 9 29 7 1 23 7 35 14 26 14 43 15 43 3 0 -5 -11 -12
-25 -15 -22 -6 -23 -9 -13 -26 10 -15 24 -20 55 -20 23 0 44 -4 47 -8 2 -4
-11 -6 -30 -4 -28 4 -33 1 -28 -12 4 -10 1 -16 -9 -16 -9 0 -22 -8 -29 -18 -9
-13 -25 -18 -58 -17 -79 2 -100 5 -99 13 4 26 -2 41 -17 35 -11 -4 -14 -13
-10 -29 6 -21 3 -24 -23 -24 -16 0 -33 -5 -36 -10 -9 -14 -75 -41 -85 -35 -5
3 -11 1 -15 -5 -3 -5 -15 -10 -26 -10 -29 0 -23 -17 11 -29 35 -12 41 -45 11
-60 -10 -6 -20 -9 -22 -7 -2 2 -25 7 -50 10 l-46 6 -6 -50 c-7 -57 0 -83 19
-76 7 3 18 -2 25 -10 21 -26 119 4 119 35 0 32 60 72 113 76 46 3 54 0 101
-37 28 -22 57 -49 64 -59 15 -22 34 -16 25 6 -4 11 0 14 13 9 11 -3 -6 10 -36
30 -53 35 -77 62 -67 73 11 10 117 -69 137 -102 11 -18 27 -36 35 -39 8 -3 15
-12 15 -21 0 -18 6 -19 25 -2 11 10 10 16 -8 36 -12 13 -17 21 -10 17 6 -3 14
-2 18 3 8 14 35 2 29 -13 -6 -15 39 -72 58 -74 7 -1 37 -4 66 -6 30 -2 56 -7
60 -10 3 -4 5 -30 3 -59 -3 -68 19 -119 80 -184 27 -28 49 -58 49 -66 0 -9 16
-34 36 -58 20 -24 49 -69 65 -100 16 -32 37 -60 48 -64 23 -7 89 18 105 40 28
37 29 -357 1 -485 -3 -14 -8 -38 -11 -55 -11 -63 -76 -240 -120 -327 -25 -51
-73 -132 -107 -182 -60 -88 -216 -255 -286 -306 -19 -14 -39 -30 -45 -35 -24
-22 -145 -95 -221 -133 -117 -58 -270 -110 -375 -127 -19 -3 -60 -9 -90 -14
-80 -14 -282 -10 -391 6 -218 31 -423 114 -368 149 6 3 8 17 5 30 -4 16 -2 24
6 25 7 0 3 5 -9 11 -29 14 -30 28 -2 28 18 0 20 4 15 25 -5 21 -1 27 29 39 41
18 46 45 13 76 -18 16 -19 20 -5 20 9 0 27 5 40 11 20 9 28 25 42 91 9 43 14
91 10 105 -5 21 1 32 38 67 46 43 69 90 61 128 -2 13 -7 37 -10 55 -4 20 1 51
15 88 34 89 30 101 -36 131 -41 18 -69 24 -95 21 -21 -3 -38 -1 -38 4 0 5 -12
14 -26 20 -22 8 -30 6 -46 -10 -29 -32 -67 -4 -53 40 7 22 -22 75 -44 85 -9 3
-34 8 -56 11 -22 2 -56 15 -75 27 -84 55 -105 64 -142 61 -23 -2 -50 4 -73 16
-20 11 -34 15 -30 10 3 -6 1 -11 -4 -11 -6 0 -11 -12 -11 -27 -1 -22 -3 -25
-10 -12 -5 9 -8 26 -5 38 5 27 3 26 -45 -5 -52 -35 -67 -78 -47 -138 14 -40
13 -46 -8 -90 -22 -45 -23 -80 -4 -92 4 -2 3 -15 -3 -28 -9 -21 -4 -31 44 -87
29 -35 67 -82 83 -104 38 -50 53 -62 89 -69 72 -15 114 -80 132 -206 3 -25 7
-54 9 -65 2 -11 10 -38 19 -60 9 -22 18 -62 20 -90 2 -27 11 -63 20 -79 33
-63 -5 -47 -144 63 -266 209 -465 537 -526 867 -24 127 -27 408 -6 494 8 34 8
35 21 12 9 -16 18 -21 32 -17 16 5 19 1 19 -24 0 -17 11 -42 26 -61 24 -28 26
-36 21 -90 -4 -33 -2 -60 3 -62 5 -2 12 -25 16 -53 9 -72 21 -84 39 -43 15 32
33 33 37 1 4 -23 6 -25 12 -10 5 9 5 28 2 42 -5 21 -11 24 -30 19 -52 -13 -56
60 -9 162 27 60 23 79 -18 88 -16 3 -29 9 -29 13 0 5 20 35 45 68 67 90 53
110 -27 39 -41 -37 -78 -37 -78 0 0 34 74 178 106 207 56 49 61 51 84 39 16
-8 25 -8 41 3 16 11 28 12 53 5 l34 -11 -14 -50 c-13 -49 -11 -67 5 -67 10 0
41 78 41 101 0 29 38 66 95 93 34 16 60 36 67 51 6 14 16 25 23 25 6 0 17 11
24 24 8 15 32 30 67 42 30 10 56 25 59 34 3 9 24 21 48 27 23 6 51 14 62 17
19 7 19 7 3 -7 -30 -24 -20 -27 30 -9 28 10 40 18 30 20 -10 2 -18 8 -18 13 0
6 -4 7 -10 4 -15 -9 -12 12 5 28 8 8 11 18 7 22 -4 4 3 4 16 1 12 -4 22 -3 22
2 0 5 10 12 23 15 19 5 18 3 -9 -22 -26 -24 -29 -31 -19 -45 11 -14 13 -14 18
-2 5 12 13 13 36 6 17 -5 31 -7 31 -5 0 2 3 10 6 19 4 12 0 16 -15 16 -24 0
-28 22 -6 44 22 22 18 36 -14 47 -21 7 -31 18 -33 36 -3 23 -7 26 -53 27 -27
1 -68 5 -90 9 -32 6 -44 4 -64 -13 -18 -16 -21 -23 -12 -34 9 -11 5 -16 -18
-26 -16 -6 -31 -21 -34 -32 -7 -23 -29 -14 -25 10 2 9 -1 17 -7 18 -25 3 -75
29 -75 39 0 13 99 65 123 65 10 0 28 5 40 12 20 10 21 10 8 -6 -12 -14 -11
-16 10 -12 13 3 33 5 44 5 16 1 17 3 5 11 -8 5 -12 10 -10 12 26 17 75 38 87
38 8 0 21 -6 29 -14 12 -13 11 -16 -8 -22 -24 -8 -30 -10 -50 -14 -7 -1 7 -6
32 -10 25 -4 52 -10 60 -11 8 -2 14 2 12 9 -1 6 1 11 5 11 20 -3 26 2 13 11
-12 7 -8 10 15 10 l30 1 -24 17 c-30 21 -112 41 -170 42 -33 0 -41 3 -35 13 5
7 2 6 -6 -3 -9 -9 -22 -15 -30 -13 -8 2 2 -5 23 -15 l37 -19 -26 -11 c-14 -7
-23 -8 -19 -2 3 5 0 10 -9 10 -8 0 -16 5 -18 12 -3 7 -12 9 -22 5 -9 -4 -14
-11 -11 -17 3 -5 -2 -10 -12 -11 -10 -1 -35 -2 -56 -3 -21 -1 -41 2 -44 7 -3
6 -1 7 5 3 13 -8 54 33 45 47 -3 5 -9 4 -13 -4 -11 -16 -73 -22 -67 -6 2 7 13
11 25 11 12 -1 20 2 17 6 -20 33 256 169 445 219 78 21 101 26 185 37 28 3 51
7 53 9 8 7 286 -4 347 -14z m-1121 -302 c-5 -8 4 -10 29 -7 20 2 33 0 31 -4
-3 -4 -23 -8 -46 -8 -35 0 -39 2 -28 15 15 18 24 20 14 4z m483 -165 c-3 -3
-12 -4 -19 -1 -8 3 -5 6 6 6 11 1 17 -2 13 -5z m-122 -64 c-3 -5 -16 -10 -28
-9 -20 1 -20 2 3 9 14 4 26 8 28 9 2 1 0 -3 -3 -9z m1886 -370 c5 0 8 -3 8 -7
-3 -17 14 -73 22 -73 5 0 9 -6 9 -12 0 -17 -79 73 -80 91 0 8 6 11 16 7 9 -3
20 -6 25 -6z"/>
<path d="M3110 5323 c-111 -13 -112 -14 -94 -27 14 -11 7 -12 -42 -8 -64 5
-71 -5 -9 -13 21 -2 41 -7 44 -11 3 -4 -4 -4 -16 -1 -13 3 -23 1 -23 -4 0 -5
9 -9 21 -9 11 0 18 -4 15 -8 -2 -4 5 -8 17 -9 12 0 16 1 10 4 -7 3 -13 8 -13
12 0 11 127 54 142 48 8 -4 7 -6 -4 -6 -10 -1 -18 -5 -18 -11 0 -5 -9 -10 -20
-10 -11 0 -20 -4 -20 -10 0 -5 16 -10 35 -10 25 0 38 -5 42 -17 4 -10 11 -21
17 -25 6 -4 4 -9 -6 -13 -14 -5 -15 -11 -6 -30 16 -36 49 -46 74 -22 20 19 86
47 114 47 33 0 90 22 84 31 -3 6 3 13 15 16 12 3 21 12 21 19 0 8 5 14 12 14
6 0 8 3 4 8 -4 4 9 13 31 20 l38 12 -47 -4 c-30 -2 -45 0 -42 6 8 12 -182 4
-258 -10 -30 -5 -46 -5 -45 1 2 12 -40 24 -73 20z"/>
<path d="M3995 5319 c-44 -7 -35 -10 36 -14 30 -2 46 1 46 9 0 13 -21 14 -82
5z"/>
<path d="M2828 5273 c6 -2 18 -2 25 0 6 3 1 5 -13 5 -14 0 -19 -2 -12 -5z"/>
<path d="M2810 5255 c0 -7 30 -13 34 -7 3 4 -4 9 -15 9 -10 1 -19 0 -19 -2z"/>
<path d="M2900 5256 c0 -2 7 -6 15 -10 8 -3 15 -1 15 4 0 6 -7 10 -15 10 -8 0
-15 -2 -15 -4z"/>
<path d="M2766 5218 c7 -11 32 -10 39 2 3 6 -4 9 -19 8 -13 -1 -22 -6 -20 -10z"/>
<path d="M3490 5196 c0 -15 44 -25 77 -16 34 8 13 25 -34 27 -30 1 -43 -2 -43
-11z"/>
<path d="M3802 5192 c-9 -6 -7 -14 8 -30 12 -12 26 -22 31 -22 6 0 1 -9 -12
-20 -22 -18 -22 -19 -5 -20 19 0 19 -1 2 -13 -15 -11 -11 -12 26 -9 44 4 68
16 68 35 0 6 -3 8 -6 5 -7 -7 -60 44 -56 55 1 4 -5 7 -14 7 -8 0 -12 5 -9 10
7 12 -15 13 -33 2z"/>
<path d="M3752 5147 c-20 -26 -22 -47 -4 -47 24 0 39 12 44 34 4 21 -26 31
-40 13z"/>
<path d="M4060 4881 c0 -6 5 -13 10 -16 6 -3 10 1 10 9 0 9 -4 16 -10 16 -5 0
-10 -4 -10 -9z"/>
<path d="M4018 4844 c-4 -3 -34 -7 -69 -10 -36 -2 -84 -14 -113 -27 -28 -13
-63 -22 -78 -20 -18 2 -34 -4 -48 -19 -45 -47 -68 -84 -74 -119 -5 -28 -16
-43 -47 -64 -32 -21 -48 -43 -75 -101 -31 -68 -33 -81 -28 -138 4 -46 2 -71
-9 -92 -20 -41 -11 -95 23 -131 11 -13 36 -49 55 -82 44 -74 90 -106 131 -90
16 5 44 8 62 4 25 -5 44 0 77 19 54 32 78 33 98 2 10 -14 30 -26 51 -30 41 -8
53 -34 41 -94 -11 -60 -7 -82 24 -121 28 -36 71 -169 71 -222 0 -12 -11 -46
-25 -75 -29 -62 -28 -93 8 -179 13 -33 28 -82 32 -109 3 -27 22 -83 40 -125
18 -42 36 -91 40 -110 l7 -33 47 7 c25 4 55 8 66 9 42 4 93 39 116 80 12 22
31 52 41 65 10 13 18 36 18 51 0 19 10 37 30 53 31 26 36 53 24 113 -6 32 14
59 85 114 31 24 32 28 36 109 2 47 -1 93 -6 103 -18 33 -21 109 -6 132 8 12
17 33 21 49 3 15 36 58 72 95 90 92 163 241 147 300 -4 18 -7 18 -60 0 -65
-22 -103 -17 -103 13 0 11 -19 41 -43 67 -45 49 -96 139 -103 182 -3 14 -26
68 -52 120 -55 111 -60 123 -34 91 18 -23 19 -23 24 -3 3 11 3 32 1 46 -5 26
-7 26 -82 24 -57 -1 -90 4 -135 21 -62 23 -86 18 -86 -20 0 -30 -15 -30 -66 3
-27 17 -62 34 -79 38 -28 6 -30 9 -30 52 0 26 -2 45 -4 42 -2 -2 -9 1 -16 6
-7 5 -14 7 -17 4z"/>
<path d="M4145 4820 c3 -5 15 -10 26 -10 10 0 19 5 19 10 0 6 -12 10 -26 10
-14 0 -23 -4 -19 -10z"/>
<path d="M4518 4733 c7 -3 16 -2 19 1 4 3 -2 6 -13 5 -11 0 -14 -3 -6 -6z"/>
<path d="M2345 4400 c-10 -11 -13 -20 -7 -20 6 0 13 4 17 10 10 16 53 -11 64
-41 5 -15 6 -30 3 -34 -8 -8 18 -25 41 -25 24 0 21 24 -8 70 -39 61 -78 76
-110 40z"/>
<path d="M2509 4281 c-1 -9 -1 -19 0 -23 0 -5 -8 -8 -18 -8 -11 0 -23 -5 -27
-12 -5 -8 -2 -9 9 -5 9 3 20 0 24 -7 6 -9 20 -11 50 -7 l41 6 -13 31 c-15 35
-64 54 -66 25z"/>
<path d="M2395 4230 c4 -6 11 -8 16 -5 14 9 11 15 -7 15 -8 0 -12 -5 -9 -10z"/>
<path d="M2610 4200 c0 -13 18 -22 24 -11 3 5 -1 11 -9 15 -8 3 -15 1 -15 -4z"/>
<path d="M2108 1031 c-191 -190 -345 -347 -342 -350 7 -8 3474 -8 3474 -1 0 3
-155 160 -345 350 l-345 345 -1047 0 -1048 1 -347 -345z"/>
</g>
</svg>
